<svg width="32" height="32" viewBox="0 0 32 32" xmlns="http://www.w3.org/2000/svg">
    <!-- Background -->
    <defs>
        <linearGradient id="bgGradient" x1="0%" y1="0%" x2="100%" y2="100%">
            <stop offset="0%" style="stop-color:#1e293b;stop-opacity:1" />
            <stop offset="100%" style="stop-color:#0f172a;stop-opacity:1" />
        </linearGradient>

        <!-- Clip path to cut out magnifying glass area from file icon -->
        <clipPath id="fileClip">
            <path d="M 0 0 L 32 0 L 32 32 L 0 32 Z M 23 15 A 6 6 0 1 0 23 27 A 6 6 0 1 0 23 15 Z" fill-rule="evenodd" />
        </clipPath>

        <clipPath id="fileFoldClip">
            <path d="M 0 3.25 L 17.25 3.25 L 23.75 9.75 L 23.75 32 L 0 32 Z" />
        </clipPath>
    </defs>

    <rect width="32" height="32" rx="6" fill="url(#bgGradient)" />

    <!-- Main file icon with clip applied -->
    <g clip-path="url(#fileFoldClip)">
        <g clip-path="url(#fileClip)">
            <g transform="translate(5 4)">
                <!-- File body -->
                <rect x="0" y="0" width="18" height="24" rx="2" fill="#1e293b" stroke="#3b82f6" stroke-width="1.5" />

                <!-- Data visualization bars -->
                <g transform="translate(2, 7)">
                    <rect x="0" y="0" width="14" height="2" rx="1" fill="#3b82f6" opacity="0.8" />
                    <rect x="0" y="3" width="11" height="2" rx="1" fill="#06b6d4" opacity="0.7" />
                    <rect x="0" y="6" width="13" height="2" rx="1" fill="#8b5cf6" opacity="0.6" />
                    <rect x="0" y="9" width="9" height="2" rx="1" fill="#10b981" opacity="0.6" />
                </g>
            </g>
        </g>

        <!-- File corner fold -->
        <rect x="18" y="4" width="5" height="5" fill="#1e293b" stroke="#3b82f6" stroke-width="1.5" />
    </g>

    <!-- Small magnifying glass overlay -->
    <g transform="translate(23, 21)">
        <circle cx="0" cy="0" r="4" fill="none" stroke="#3b82f6" stroke-width="1.5" />
        <circle cx="0" cy="0" r="2.5" fill="none" stroke="#3b82f6" stroke-width="1" opacity="0.6" />
        <line x1="2.8" y1="2.8" x2="5" y2="5" stroke="#3b82f6" stroke-width="1.5" stroke-linecap="round" />
    </g>

    <!-- Subtle accent dots -->
    <circle cx="28" cy="13" r="1" fill="#3b82f6" opacity="0.4" />
    <circle cx="26" cy="6" r="0.8" fill="#06b6d4" opacity="0.3" />
</svg>
