<svg xmlns="http://www.w3.org/2000/svg" width="32" height="32"><defs><clipPath id="c"><path fill-rule="evenodd" d="M0 0h32v32H0Zm23 15a6 6 0 1 0 0 12 6 6 0 1 0 0-12Z"/></clipPath><clipPath id="b"><path d="M0 3.25h17.25l6.5 6.5V32H0Z"/></clipPath><linearGradient id="a" x1="0%" x2="100%" y1="0%" y2="100%"><stop offset="0%" style="stop-color:#1e293b;stop-opacity:1"/><stop offset="100%" style="stop-color:#0f172a;stop-opacity:1"/></linearGradient></defs><rect width="32" height="32" fill="url(#a)" rx="6"/><g clip-path="url(#b)"><g clip-path="url(#c)"><g transform="translate(5 4)"><rect width="18" height="24" fill="#1e293b" stroke="#3b82f6" stroke-width="1.5" rx="2"/><g transform="translate(2 7)"><rect width="14" height="2" fill="#3b82f6" opacity=".8" rx="1"/><rect width="11" height="2" y="3" fill="#06b6d4" opacity=".7" rx="1"/><rect width="13" height="2" y="6" fill="#8b5cf6" opacity=".6" rx="1"/><rect width="9" height="2" y="9" fill="#10b981" opacity=".6" rx="1"/></g></g></g><path fill="#1e293b" stroke="#3b82f6" stroke-width="1.5" d="M18 4h5v5h-5z"/></g><g stroke="#3b82f6" transform="translate(23 21)"><circle r="4" fill="none" stroke-width="1.5"/><circle r="2.5" fill="none" opacity=".6"/><path stroke-linecap="round" stroke-width="1.5" d="M2.8 2.8 5 5"/></g><circle cx="28" cy="13" r="1" fill="#3b82f6" opacity=".4"/><circle cx="26" cy="6" r=".8" fill="#06b6d4" opacity=".3"/></svg>
